<svg xmlns="http://www.w3.org/2000/svg" version="1.1" xmlns:xlink="http://www.w3.org/1999/xlink" xmlns:svgjs="http://svgjs.dev/svgjs" width="2000" height="732" viewBox="0 0 2000 732"><g transform="matrix(1,0,0,1,-1.212093806319217,0.7572812342431803)"><svg viewBox="0 0 396 145" data-background-color="#ffffff" preserveAspectRatio="xMidYMid meet" height="732" width="2000" xmlns="http://www.w3.org/2000/svg" xmlns:xlink="http://www.w3.org/1999/xlink"><g id="tight-bounds" transform="matrix(1,0,0,1,0.2399976879477208,-0.15000789476128773)"><svg viewBox="0 0 395.52 145.29999530437212" height="145.29999530437212" width="395.52"><g><svg viewBox="0 0 681.2201657437117 250.25608536560708" height="145.29999530437212" width="395.52"><g><rect width="11.144350782165452" height="181.98796367035823" x="245.38212181451638" y="34.134060847624426" fill="#FFffff" opacity="1" stroke-width="0" stroke="transparent" fill-opacity="1" class="rect-o-0" data-fill-palette-color="primary" rx="1%" id="o-0" data-palette-color="#61777f"></rect></g><g transform="matrix(1,0,0,1,285.7001657437118,34.58676722491387)"><svg viewBox="0 0 395.52 181.08255091577934" height="181.08255091577934" width="395.52"><g><svg viewBox="0 0 395.52 181.08255091577934" height="181.08255091577934" width="395.52"><g><svg viewBox="0 0 395.52 123.57754768392371" height="123.57754768392371" width="395.52"><g transform="matrix(1,0,0,1,0,0)"><svg width="395.52" viewBox="3.299999952316284 -34 110.08999633789062 34.400001525878906" height="123.57754768392371" data-palette-color="#61777f"><g class="undefined-text-0" data-fill-palette-color="primary" id="text-0"><path d="M23.35-8.95L23.35-8.95Q23.35-4.5 20.3-2.08 17.25 0.35 12.45 0.35L12.45 0.35Q7.15 0.35 3.45-1.8L3.45-1.8 3.45-6.15Q7.1-3.4 12.35-3.4L12.35-3.4Q15.5-3.4 17.3-4.8 19.1-6.2 19.1-8.85L19.1-8.85Q19.1-9.95 18.68-10.83 18.25-11.7 17.28-12.43 16.3-13.15 15.43-13.63 14.55-14.1 13.05-14.8L13.05-14.8Q12.75-14.95 12.15-15.2L12.15-15.2Q10-16.15 8.88-16.75 7.75-17.35 6.23-18.53 4.7-19.7 4-21.25 3.3-22.8 3.3-24.85L3.3-24.85Q3.3-29.15 6.38-31.58 9.45-34 14.1-34L14.1-34Q18.45-34 21.5-32.45L21.5-32.45 21.5-28.2Q18.45-30.2 14.2-30.2L14.2-30.2Q11.15-30.2 9.35-28.78 7.55-27.35 7.55-25.05L7.55-25.05Q7.55-23.85 8.03-22.9 8.5-21.95 9.7-21.13 10.9-20.3 11.75-19.88 12.6-19.45 14.4-18.65L14.4-18.65Q16.1-17.9 17-17.48 17.9-17.05 19.33-16.13 20.75-15.2 21.48-14.33 22.2-13.45 22.78-12.03 23.35-10.6 23.35-8.95ZM49.35-33.7L49.35-30.15 40.25-30.15 40.25 0 36.2 0 36.2-30.15 27.1-30.15 27.1-33.7 49.35-33.7ZM78.75-33.7L78.75-12.8Q78.75-6.3 75.47-2.95 72.2 0.4 66.34 0.4L66.34 0.4Q60.59 0.4 57.34-2.88 54.09-6.15 54.09-12.4L54.09-12.4 54.09-33.7 58.15-33.7 58.15-12.45Q58.15-7.8 60.37-5.6 62.59-3.4 66.34-3.4L66.34-3.4Q74.7-3.4 74.7-12.7L74.7-12.7 74.7-33.7 78.75-33.7ZM96.59 0L96.59 0 86.39 0 86.39-33.7 96.39-33.7Q103.84-33.7 108.62-29.08 113.39-24.45 113.39-17.1L113.39-17.1Q113.39-9.8 108.97-4.9 104.54 0 96.59 0ZM96.34-30.1L96.34-30.1 90.49-30.1 90.49-3.55 96.54-3.55Q102.79-3.55 105.99-7.43 109.19-11.3 109.19-17.1L109.19-17.1Q109.19-22.6 105.62-26.35 102.04-30.1 96.34-30.1Z" fill="#FFffff" data-fill-palette-color="primary"></path></g></svg></g></svg></g><g transform="matrix(1,0,0,1,0,152.7512408309537)"><svg viewBox="0 0 375.74399999999997 28.33131008482563" height="28.33131008482563" width="375.74399999999997"><g transform="matrix(1,0,0,1,0,0)"><svg width="375.74399999999997" viewBox="0.6499999761581421 -37.45000076293945 636.5199584960938 48" height="28.33131008482563" data-palette-color="#61777f"><path d="M12.65-33.9Q10.8-33.9 9.93-33 9.05-32.1 9.05-30.2L9.05-30.2 9.05-26.3 14.95-26.3 14.45-22.9 9.05-22.9 9.05 0 4.55 0 4.55-22.9 0.65-22.9 0.65-26.3 4.55-26.3 4.55-30.15Q4.55-33.45 6.58-35.45 8.6-37.45 12.2-37.45L12.2-37.45Q15.2-37.45 18.1-36L18.1-36 16.75-32.9Q14.7-33.9 12.65-33.9L12.65-33.9ZM28.5-26.95Q33.55-26.95 36.35-23.4 39.15-19.85 39.15-13.2L39.15-13.2Q39.15-6.8 36.3-3.08 33.45 0.65 28.45 0.65L28.45 0.65Q23.4 0.65 20.57-3 17.75-6.65 17.75-13.15L17.75-13.15Q17.75-19.7 20.6-23.33 23.45-26.95 28.5-26.95L28.5-26.95ZM28.5-23.35Q25.55-23.35 24-20.88 22.45-18.4 22.45-13.15L22.45-13.15Q22.45-2.9 28.45-2.9L28.45-2.9Q34.45-2.9 34.45-13.2L34.45-13.2Q34.45-18.45 32.95-20.9 31.45-23.35 28.5-23.35L28.5-23.35ZM56.45-26.9Q57.75-26.9 58.7-26.6L58.7-26.6 57.95-22.25Q57-22.55 55.9-22.55L55.9-22.55Q53.7-22.55 52.32-20.8 50.95-19.05 50.15-15.45L50.15-15.45 50.15 0 45.65 0 45.65-26.3 49.55-26.3 49.9-21.1Q51.85-26.9 56.45-26.9L56.45-26.9ZM85.64-4.05L87.29-1.15Q84.79 0.65 81.74 0.65L81.74 0.65Q78.54 0.65 76.82-1.2 75.09-3.05 75.09-6.4L75.09-6.4 75.09-22.9 71.34-22.9 71.34-26.3 75.09-26.3 75.09-32.35 79.59-32.9 79.59-26.3 85.39-26.3 84.89-22.9 79.59-22.9 79.59-6.45Q79.59-3.05 82.44-3.05L82.44-3.05Q83.29-3.05 84.02-3.3 84.74-3.55 85.64-4.05L85.64-4.05ZM102.94-26.95Q106.09-26.95 107.86-24.85 109.64-22.75 109.64-19.15L109.64-19.15 109.64 0 105.14 0 105.14-18.6Q105.14-21.15 104.26-22.28 103.39-23.4 101.69-23.4L101.69-23.4Q98.39-23.4 95.69-18.7L95.69-18.7 95.69 0 91.19 0 91.19-36.9 95.69-37.4 95.69-22.55Q97.14-24.7 98.89-25.83 100.64-26.95 102.94-26.95L102.94-26.95ZM135.99-13.95Q135.99-12.9 135.89-11.6L135.89-11.6 120.59-11.6Q120.79-7 122.44-4.98 124.09-2.95 126.94-2.95L126.94-2.95Q128.74-2.95 130.16-3.5 131.59-4.05 133.14-5.3L133.14-5.3 135.14-2.65Q131.44 0.65 126.74 0.65L126.74 0.65Q121.59 0.65 118.76-2.93 115.94-6.5 115.94-12.95L115.94-12.95Q115.94-19.4 118.64-23.18 121.34-26.95 126.14-26.95L126.14-26.95Q130.89-26.95 133.44-23.58 135.99-20.2 135.99-13.95L135.99-13.95ZM131.64-14.75L131.64-15.3Q131.64-23.55 126.19-23.55L126.19-23.55Q123.69-23.55 122.24-21.48 120.79-19.4 120.59-14.75L120.59-14.75 131.64-14.75ZM160.78-26.95Q165.33-26.95 168.88-23.95L168.88-23.95 166.98-21.3Q165.38-22.4 163.98-22.95 162.58-23.5 161.03-23.5L161.03-23.5Q158.98-23.5 157.81-22.53 156.63-21.55 156.63-19.85L156.63-19.85Q156.63-18.2 157.75-17.25 158.88-16.3 162.03-15.3L162.03-15.3Q165.98-14.05 167.78-12.25 169.58-10.45 169.58-7.3L169.58-7.3Q169.58-3.6 166.88-1.48 164.18 0.65 160.13 0.65L160.13 0.65Q154.78 0.65 151.08-2.9L151.08-2.9 153.38-5.4Q156.53-2.85 160.03-2.85L160.03-2.85Q162.23-2.85 163.58-3.95 164.93-5.05 164.93-7L164.93-7Q164.93-8.4 164.46-9.25 163.98-10.1 162.75-10.78 161.53-11.45 159.18-12.2L159.18-12.2Q155.43-13.45 153.78-15.2 152.13-16.95 152.13-19.65L152.13-19.65Q152.13-21.75 153.23-23.4 154.33-25.05 156.28-26 158.23-26.95 160.78-26.95L160.78-26.95ZM186.13-4.05L187.78-1.15Q185.28 0.65 182.23 0.65L182.23 0.65Q179.03 0.65 177.3-1.2 175.58-3.05 175.58-6.4L175.58-6.4 175.58-22.9 171.83-22.9 171.83-26.3 175.58-26.3 175.58-32.35 180.08-32.9 180.08-26.3 185.88-26.3 185.38-22.9 180.08-22.9 180.08-6.45Q180.08-3.05 182.93-3.05L182.93-3.05Q183.78-3.05 184.5-3.3 185.23-3.55 186.13-4.05L186.13-4.05ZM209.72-26.3L209.72 0 205.82 0 205.57-3.95Q202.82 0.65 198.22 0.65L198.22 0.65Q195.07 0.65 193.28-1.4 191.47-3.45 191.47-6.95L191.47-6.95 191.47-26.3 195.97-26.3 195.97-7.35Q195.97-5.05 196.85-3.98 197.72-2.9 199.47-2.9L199.47-2.9Q202.82-2.9 205.22-7.3L205.22-7.3 205.22-26.3 209.72-26.3ZM232.02-37.45L236.52-36.95 236.52 0 232.52 0 232.22-3.45Q229.67 0.65 225.37 0.65L225.37 0.65Q221.07 0.65 218.7-3 216.32-6.65 216.32-13.05L216.32-13.05Q216.32-17.2 217.5-20.35 218.67-23.5 220.82-25.23 222.97-26.95 225.77-26.95L225.77-26.95Q229.52-26.95 232.02-23.8L232.02-23.8 232.02-37.45ZM226.42-2.9Q228.22-2.9 229.55-3.9 230.87-4.9 232.02-6.85L232.02-6.85 232.02-20.05Q229.77-23.4 226.77-23.4L226.77-23.4Q224.12-23.4 222.57-20.85 221.02-18.3 221.07-13.15L221.07-13.15Q221.07-7.9 222.47-5.4 223.87-2.9 226.42-2.9L226.42-2.9ZM263.07-13.95Q263.07-12.9 262.97-11.6L262.97-11.6 247.67-11.6Q247.87-7 249.52-4.98 251.17-2.95 254.02-2.95L254.02-2.95Q255.82-2.95 257.25-3.5 258.67-4.05 260.22-5.3L260.22-5.3 262.22-2.65Q258.52 0.65 253.82 0.65L253.82 0.65Q248.67 0.65 245.85-2.93 243.02-6.5 243.02-12.95L243.02-12.95Q243.02-19.4 245.72-23.18 248.42-26.95 253.22-26.95L253.22-26.95Q257.97-26.95 260.52-23.58 263.07-20.2 263.07-13.95L263.07-13.95ZM258.72-14.75L258.72-15.3Q258.72-23.55 253.27-23.55L253.27-23.55Q250.77-23.55 249.32-21.48 247.87-19.4 247.67-14.75L247.67-14.75 258.72-14.75ZM281.07-26.95Q284.22-26.95 285.99-24.88 287.77-22.8 287.77-19.15L287.77-19.15 287.77 0 283.27 0 283.27-18.6Q283.27-21.15 282.42-22.28 281.57-23.4 279.82-23.4L279.82-23.4Q276.52-23.4 273.82-18.7L273.82-18.7 273.82 0 269.32 0 269.32-26.3 273.22-26.3 273.57-22.4Q276.62-26.95 281.07-26.95L281.07-26.95ZM306.47-4.05L308.12-1.15Q305.62 0.65 302.57 0.65L302.57 0.65Q299.37 0.65 297.64-1.2 295.92-3.05 295.92-6.4L295.92-6.4 295.92-22.9 292.17-22.9 292.17-26.3 295.92-26.3 295.92-32.35 300.42-32.9 300.42-26.3 306.22-26.3 305.72-22.9 300.42-22.9 300.42-6.45Q300.42-3.05 303.27-3.05L303.27-3.05Q304.12-3.05 304.84-3.3 305.57-3.55 306.47-4.05L306.47-4.05ZM335.06-26.95Q339.21-26.95 341.49-23.43 343.76-19.9 343.76-13.2L343.76-13.2Q343.76-6.8 341.29-3.08 338.81 0.65 334.56 0.65L334.56 0.65Q332.56 0.65 330.91-0.28 329.26-1.2 328.06-2.9L328.06-2.9 327.76 0 323.76 0 323.76-36.9 328.26-37.4 328.26-23.1Q329.51-24.9 331.24-25.93 332.96-26.95 335.06-26.95L335.06-26.95ZM333.51-2.9Q339.06-2.9 339.06-13.2L339.06-13.2Q339.06-18.75 337.71-21.08 336.36-23.4 333.86-23.4L333.86-23.4Q332.11-23.4 330.79-22.35 329.46-21.3 328.26-19.4L328.26-19.4 328.26-6.35Q329.21-4.8 330.56-3.85 331.91-2.9 333.51-2.9L333.51-2.9ZM368.21-26.3L360.26 0.1Q358.86 4.75 356.31 7.3 353.76 9.85 349.06 10.55L349.06 10.55 348.56 7.2Q350.91 6.7 352.31 5.85 353.71 5 354.56 3.65 355.41 2.3 356.21 0L356.21 0 354.56 0 346.76-26.3 351.41-26.3 357.51-3.15 363.61-26.3 368.21-26.3ZM395.2-4.05L396.85-1.15Q394.35 0.65 391.3 0.65L391.3 0.65Q388.1 0.65 386.38-1.2 384.65-3.05 384.65-6.4L384.65-6.4 384.65-22.9 380.9-22.9 380.9-26.3 384.65-26.3 384.65-32.35 389.15-32.9 389.15-26.3 394.95-26.3 394.45-22.9 389.15-22.9 389.15-6.45Q389.15-3.05 392-3.05L392-3.05Q392.85-3.05 393.58-3.3 394.3-3.55 395.2-4.05L395.2-4.05ZM412.5-26.95Q415.65-26.95 417.43-24.85 419.2-22.75 419.2-19.15L419.2-19.15 419.2 0 414.7 0 414.7-18.6Q414.7-21.15 413.83-22.28 412.95-23.4 411.25-23.4L411.25-23.4Q407.95-23.4 405.25-18.7L405.25-18.7 405.25 0 400.75 0 400.75-36.9 405.25-37.4 405.25-22.55Q406.7-24.7 408.45-25.83 410.2-26.95 412.5-26.95L412.5-26.95ZM445.55-13.95Q445.55-12.9 445.45-11.6L445.45-11.6 430.15-11.6Q430.35-7 432-4.98 433.65-2.95 436.5-2.95L436.5-2.95Q438.3-2.95 439.72-3.5 441.15-4.05 442.7-5.3L442.7-5.3 444.7-2.65Q441 0.65 436.3 0.65L436.3 0.65Q431.15 0.65 428.32-2.93 425.5-6.5 425.5-12.95L425.5-12.95Q425.5-19.4 428.2-23.18 430.9-26.95 435.7-26.95L435.7-26.95Q440.45-26.95 443-23.58 445.55-20.2 445.55-13.95L445.55-13.95ZM441.2-14.75L441.2-15.3Q441.2-23.55 435.75-23.55L435.75-23.55Q433.25-23.55 431.8-21.48 430.35-19.4 430.15-14.75L430.15-14.75 441.2-14.75ZM470.34-26.95Q474.89-26.95 478.44-23.95L478.44-23.95 476.54-21.3Q474.94-22.4 473.54-22.95 472.14-23.5 470.59-23.5L470.59-23.5Q468.54-23.5 467.37-22.53 466.19-21.55 466.19-19.85L466.19-19.85Q466.19-18.2 467.32-17.25 468.44-16.3 471.59-15.3L471.59-15.3Q475.54-14.05 477.34-12.25 479.14-10.45 479.14-7.3L479.14-7.3Q479.14-3.6 476.44-1.48 473.74 0.65 469.69 0.65L469.69 0.65Q464.34 0.65 460.64-2.9L460.64-2.9 462.94-5.4Q466.09-2.85 469.59-2.85L469.59-2.85Q471.79-2.85 473.14-3.95 474.49-5.05 474.49-7L474.49-7Q474.49-8.4 474.02-9.25 473.54-10.1 472.32-10.78 471.09-11.45 468.74-12.2L468.74-12.2Q464.99-13.45 463.34-15.2 461.69-16.95 461.69-19.65L461.69-19.65Q461.69-21.75 462.79-23.4 463.89-25.05 465.84-26 467.79-26.95 470.34-26.95L470.34-26.95ZM495.69-4.05L497.34-1.15Q494.84 0.65 491.79 0.65L491.79 0.65Q488.59 0.65 486.87-1.2 485.14-3.05 485.14-6.4L485.14-6.4 485.14-22.9 481.39-22.9 481.39-26.3 485.14-26.3 485.14-32.35 489.64-32.9 489.64-26.3 495.44-26.3 494.94-22.9 489.64-22.9 489.64-6.45Q489.64-3.05 492.49-3.05L492.49-3.05Q493.34-3.05 494.07-3.3 494.79-3.55 495.69-4.05L495.69-4.05ZM519.29-26.3L519.29 0 515.39 0 515.14-3.95Q512.39 0.65 507.79 0.65L507.79 0.65Q504.64 0.65 502.84-1.4 501.04-3.45 501.04-6.95L501.04-6.95 501.04-26.3 505.54-26.3 505.54-7.35Q505.54-5.05 506.41-3.98 507.29-2.9 509.04-2.9L509.04-2.9Q512.39-2.9 514.79-7.3L514.79-7.3 514.79-26.3 519.29-26.3ZM541.59-37.45L546.09-36.95 546.09 0 542.09 0 541.79-3.45Q539.24 0.65 534.94 0.65L534.94 0.65Q530.64 0.65 528.26-3 525.89-6.65 525.89-13.05L525.89-13.05Q525.89-17.2 527.06-20.35 528.24-23.5 530.39-25.23 532.54-26.95 535.34-26.95L535.34-26.95Q539.09-26.95 541.59-23.8L541.59-23.8 541.59-37.45ZM535.99-2.9Q537.79-2.9 539.11-3.9 540.44-4.9 541.59-6.85L541.59-6.85 541.59-20.05Q539.34-23.4 536.34-23.4L536.34-23.4Q533.69-23.4 532.14-20.85 530.59-18.3 530.64-13.15L530.64-13.15Q530.64-7.9 532.04-5.4 533.44-2.9 535.99-2.9L535.99-2.9ZM572.63-13.95Q572.63-12.9 572.53-11.6L572.53-11.6 557.23-11.6Q557.43-7 559.08-4.98 560.73-2.95 563.58-2.95L563.58-2.95Q565.38-2.95 566.81-3.5 568.23-4.05 569.78-5.3L569.78-5.3 571.78-2.65Q568.08 0.65 563.38 0.65L563.38 0.65Q558.23 0.65 555.41-2.93 552.58-6.5 552.58-12.95L552.58-12.95Q552.58-19.4 555.28-23.18 557.98-26.95 562.78-26.95L562.78-26.95Q567.53-26.95 570.08-23.58 572.63-20.2 572.63-13.95L572.63-13.95ZM568.28-14.75L568.28-15.3Q568.28-23.55 562.83-23.55L562.83-23.55Q560.33-23.55 558.88-21.48 557.43-19.4 557.23-14.75L557.23-14.75 568.28-14.75ZM590.63-26.95Q593.78-26.95 595.56-24.88 597.33-22.8 597.33-19.15L597.33-19.15 597.33 0 592.83 0 592.83-18.6Q592.83-21.15 591.98-22.28 591.13-23.4 589.38-23.4L589.38-23.4Q586.08-23.4 583.38-18.7L583.38-18.7 583.38 0 578.88 0 578.88-26.3 582.78-26.3 583.13-22.4Q586.18-26.95 590.63-26.95L590.63-26.95ZM616.03-4.05L617.68-1.15Q615.18 0.65 612.13 0.65L612.13 0.65Q608.93 0.65 607.2-1.2 605.48-3.05 605.48-6.4L605.48-6.4 605.48-22.9 601.73-22.9 601.73-26.3 605.48-26.3 605.48-32.35 609.98-32.9 609.98-26.3 615.78-26.3 615.28-22.9 609.98-22.9 609.98-6.45Q609.98-3.05 612.83-3.05L612.83-3.05Q613.68-3.05 614.4-3.3 615.13-3.55 616.03-4.05L616.03-4.05ZM628.38-26.95Q632.92-26.95 636.48-23.95L636.48-23.95 634.57-21.3Q632.98-22.4 631.57-22.95 630.17-23.5 628.63-23.5L628.63-23.5Q626.57-23.5 625.4-22.53 624.23-21.55 624.23-19.85L624.23-19.85Q624.23-18.2 625.35-17.25 626.48-16.3 629.63-15.3L629.63-15.3Q633.57-14.05 635.38-12.25 637.17-10.45 637.17-7.3L637.17-7.3Q637.17-3.6 634.48-1.48 631.77 0.65 627.73 0.65L627.73 0.65Q622.38 0.65 618.67-2.9L618.67-2.9 620.98-5.4Q624.13-2.85 627.63-2.85L627.63-2.85Q629.82-2.85 631.17-3.95 632.52-5.05 632.52-7L632.52-7Q632.52-8.4 632.05-9.25 631.57-10.1 630.35-10.78 629.13-11.45 626.77-12.2L626.77-12.2Q623.02-13.45 621.38-15.2 619.73-16.95 619.73-19.65L619.73-19.65Q619.73-21.75 620.82-23.4 621.92-25.05 623.88-26 625.82-26.95 628.38-26.95L628.38-26.95Z" opacity="1" transform="matrix(1,0,0,1,0,0)" fill="#FFffff" class="undefined-text-1" data-fill-palette-color="secondary" id="text-1"></path></svg></g></svg></g></svg></g></svg></g><g><svg viewBox="0 0 216.2084286674864 250.25608536560708" height="250.25608536560708" width="216.2084286674864"><g><svg xmlns="http://www.w3.org/2000/svg" xmlns:xlink="http://www.w3.org/1999/xlink" version="1.1" x="0" y="0" viewBox="29.810001373291016 20 55.354915618896484 64.07199096679688" enable-background="new 0 0 100 100" xml:space="preserve" height="250.25608536560708" width="216.2084286674864" class="icon-icon-0" data-fill-palette-color="accent" id="icon-0"><g fill="#61777f" data-fill-palette-color="accent"><path d="M62.343 32.344c0 6.816-5.529 12.346-12.344 12.346-6.812 0-12.342-5.529-12.342-12.346C37.657 25.529 43.187 20 49.999 20 56.813 20 62.343 25.529 62.343 32.344z" fill="#FFffff" data-fill-palette-color="accent"></path><path d="M84.698 64.451l-17.93-11.866c-0.232-0.155-0.519-0.21-0.793-0.151l-19.859 4.193c-0.401 0.084-0.716 0.396-0.805 0.798l-0.119 0.537c-0.094 0.423 0.082 0.86 0.444 1.1l8.314 5.503-0.48 2.172c-0.242 1.099 0.573 2.428 2.483 3.691 3.627 2.399 9.814 3.655 13.832 2.807 1.899-0.4 2.971-1.201 3.189-2.187l0.414-1.876 5.364-1.133c0.667 0.943 1.103 2.088 1.212 3.547-0.545 0.282-0.922 0.844-0.922 1.5 0 0.551 0.266 1.034 0.674 1.344-0.461 2.352-1.076 6.673 0.15 8.589 0.361 0.563 0.873 0.924 1.479 1.039 0.048 0.009 0.096 0.014 0.144 0.014 0.356 0 0.674-0.253 0.744-0.617 0.078-0.411-0.192-0.809-0.603-0.887-0.133-0.025-0.308-0.09-0.486-0.367-0.433-0.676-0.534-2.01-0.454-3.516 0.374 1.168 0.949 2.219 1.835 2.803 0.352 0.232 0.821 0.133 1.051-0.217s0.133-0.82-0.217-1.051c-1.192-0.785-1.695-3.477-1.803-5.66 0.52-0.289 0.875-0.837 0.875-1.474 0-0.667-0.389-1.238-0.949-1.514-0.1-1.555-0.504-2.82-1.128-3.871l3.861-0.816c0.401-0.084 0.716-0.396 0.805-0.797l0.119-0.537C85.235 65.128 85.059 64.689 84.698 64.451zM64.143 60.346c0.016-0.137 0.156-0.249 0.415-0.304 0.516-0.108 1.314 0.054 1.78 0.362 0.233 0.154 0.34 0.316 0.323 0.454l0 0-0.076 0.376h0c-0.017 0.137-0.156 0.248-0.414 0.303-0.517 0.109-1.313-0.053-1.78-0.361-0.233-0.155-0.34-0.317-0.323-0.454L64.143 60.346z" fill="#FFffff" data-fill-palette-color="accent"></path><path d="M66.984 76.5c-4.429 0-9.409-1.401-12.687-3.57-3.998-2.646-4.07-5.421-3.757-6.842l0.035-0.159-6.593-4.364c-1.391-0.918-2.082-2.628-1.72-4.252l0.119-0.536c0.343-1.55 1.567-2.761 3.114-3.085l14.833-3.132c-3.023-2.207-6.555-3.479-10.33-3.479-11.144 0-20.188 11.061-20.188 24.689 0 4.551 3.011 8.23 6.73 8.23h26.917c2.324 0 4.371-1.437 5.58-3.624C68.382 76.451 67.703 76.5 66.984 76.5z" fill="#FFffff" data-fill-palette-color="accent"></path></g></svg></g></svg></g></svg></g><defs></defs></svg><rect width="395.52" height="145.29999530437212" fill="none" stroke="none" visibility="hidden"></rect></g></svg></g></svg>